<?xml version="1.0"?>
<svg xmlns="http://www.w3.org/2000/svg" viewBox="0 0 512 512" width="512" height="512">
<path d="M254.906 415.187C252.138 413.801 248.447 410.362 227.553 389.68C223.181 385.355 217.598 380.17 214.613 377.665C213.126 376.418 210.953 374.571 209.785 373.564C203.446 368.088 189.371 357.867 181.362 352.922C180.408 352.332 178.485 351.128 177.09 350.246C175.695 349.364 172.631 347.526 170.282 346.161C167.932 344.797 165.562 343.397 165.014 343.051C164.467 342.705 163.96 342.422 163.888 342.422C163.815 342.422 162.762 341.841 161.546 341.13C160.329 340.42 156.751 338.418 153.594 336.682C148.722 334.003 142.474 330.518 138.242 328.119C120.303 317.951 105.93 306.911 96.5855 296.122C87.1359 285.212 80.7643 272.06 77.8173 257.383C76.5957 251.298 76.3846 249.01 76.3568 241.55C76.3378 236.459 76.4511 233.757 76.796 231.083C77.4727 225.836 78.3413 222.265 78.9374 222.279C79.1008 222.283 79.9555 222.892 80.8366 223.634C84.8258 226.992 95.0126 234.702 100.862 238.789C101.743 239.405 104.266 241.175 106.469 242.723C108.671 244.27 112.576 246.924 115.146 248.62C117.716 250.316 120.146 251.931 120.546 252.21C120.946 252.488 121.847 253.058 122.548 253.476C123.25 253.894 125.325 255.189 127.161 256.354C128.997 257.518 131.22 258.875 132.101 259.37C132.982 259.865 135.084 261.074 136.773 262.057C138.462 263.041 141.466 264.725 143.448 265.801C145.431 266.877 147.429 267.967 147.89 268.222C150.188 269.497 158.459 273.83 164.408 276.874C170.059 279.767 177.738 283.88 183.765 287.243C188.672 289.98 201.847 298.677 206.812 302.455C211.51 306.031 213.418 307.639 218.585 312.381C224.005 317.354 231.135 325.717 235.274 331.955C239.034 337.622 243.409 345.301 244.889 348.83C245.228 349.638 246.135 351.68 246.905 353.369C249.157 358.309 252.382 367.204 254.393 374.026C255.037 376.21 255.627 378.061 255.703 378.138C255.969 378.402 256.608 377.636 257.274 376.253C259.138 372.379 260.416 369.511 261.462 366.852C265.016 357.817 269.542 347.973 272.838 342.112C275.186 337.937 275.481 337.438 277.215 334.705C282.83 325.856 292.093 315.149 299.616 308.808C308.546 301.282 314.171 297.323 328.212 288.68C331.927 286.394 346.161 278.342 346.489 278.342C346.553 278.342 347.304 277.938 348.155 277.444C349.007 276.95 351.327 275.703 353.311 274.674C362.803 269.746 375.096 262.797 383.311 257.716C389.412 253.943 406.506 242.318 411.806 238.34C413.042 237.412 415.976 235.23 418.326 233.491C420.675 231.753 424.987 228.517 427.908 226.301C430.829 224.085 433.31 222.272 433.419 222.272C433.737 222.272 433.956 223.017 434.514 226.01C435.435 230.963 435.611 233.212 435.641 240.428C435.673 247.594 435.569 248.853 434.316 256.582C432.06 270.489 425.244 284.819 415.389 296.365C405.705 307.712 392.16 318.188 372.028 329.904C370.797 330.621 369.74 331.208 369.684 331.208C369.628 331.208 368.773 331.736 367.785 332.382C366.8 333.027 364.49 334.39 362.656 335.409C358.045 337.97 352.289 341.287 351.461 341.86C351.084 342.122 349.632 342.973 348.238 343.75C340.54 348.041 325.413 357.706 319.571 362.067C318.376 362.959 316.678 364.227 315.797 364.884C312.59 367.276 308.301 370.593 307.52 371.284C307.079 371.674 305.097 373.409 303.114 375.137C296.96 380.504 292.742 384.549 279.218 398.051C266.381 410.869 262.853 414.122 260.552 415.272C258.917 416.089 256.642 416.055 254.906 415.187ZM248.282 392.735C253.932 391.101 257.38 388.826 261.965 383.708C264.392 380.998 269.121 374.581 272.776 369.041C277.024 362.6 282.4 355.056 284.465 352.636C285.061 351.938 286.161 350.646 286.909 349.765C290.776 345.21 298.691 337.671 303.782 333.695C310.644 328.334 321.316 321.973 330.215 317.937C336.352 315.154 336.84 314.952 356.115 307.232C377.648 298.605 389.759 292.277 400.704 283.931C404.137 281.311 410.772 274.812 413.904 271C416.086 268.345 419.695 263.103 421.687 259.698C426.392 251.652 430.821 238.646 431.953 229.551C432.442 225.628 432.349 225.419 430.768 226.871C428.931 228.557 427.206 229.879 417.391 237.123C407.429 244.473 393.439 254.059 385.485 258.982C375.777 264.989 372.554 266.886 365.86 270.528C363.289 271.926 360.646 273.37 359.986 273.737C359.324 274.104 356.681 275.489 354.112 276.814C338.38 284.928 319.426 296.418 309.55 303.827C308.17 304.862 306.851 305.83 306.619 305.977C306.387 306.124 306.074 306.379 305.924 306.545C305.773 306.71 304.464 307.827 303.014 309.028C296.742 314.218 290.26 320.84 285.463 326.957C282.251 331.052 277.158 338.637 275.886 341.221C275.669 341.661 275.229 342.454 274.907 342.982C272.648 346.695 266.243 360.581 263.404 367.92C260.617 375.126 256.11 383.037 252.625 386.842C250.823 388.807 248.261 390.78 245.642 392.214C244.651 392.756 243.84 393.25 243.84 393.309C243.84 393.64 246.223 393.33 248.282 392.735ZM241.394 391.416C244.171 390.671 246.322 389.523 248.913 387.406C250.635 385.998 253.185 383.254 253.185 382.81C253.185 382.575 250.739 378.333 249.604 376.597C249.268 376.085 247.931 373.922 246.634 371.791C244.227 367.84 243.148 366.259 237.626 358.587C232.828 351.921 226.154 344.665 218.13 337.391C214.971 334.526 207.263 328.922 202.804 326.246C194.185 321.073 186.446 317.206 177.09 313.395C175.989 312.946 174.006 312.137 172.685 311.597C171.363 311.056 167.999 309.787 165.209 308.776C157.148 305.855 154.031 304.648 149.723 302.779C149.282 302.588 147.42 301.805 145.584 301.04C142.203 299.63 132.478 294.922 129.297 293.156C123.344 289.849 117.673 286.119 113.544 282.793C109.24 279.326 108.722 278.861 104.711 274.874C99.7522 269.944 97.4707 267.047 92.9332 259.919C89.4983 254.523 85.1637 245.166 83.1001 238.693C82.4915 236.784 81.6496 234.2 81.2292 232.952C80.8089 231.704 80.3891 230.293 80.2965 229.818C79.8585 227.57 79.3564 229.132 78.819 234.415C78.4161 238.375 78.6241 247.037 79.2295 251.509C80.1632 258.405 82.5067 267.527 84.4515 271.835C88.249 280.247 89.1405 281.923 92.516 286.998C94.854 290.513 95.3546 291.165 98.4494 294.721C104.739 301.95 114.986 310.794 123.53 316.368C129.686 320.385 135.64 324.012 140.645 326.794C142.701 327.937 144.503 328.966 144.65 329.08C144.796 329.195 148.521 331.264 152.927 333.679C157.332 336.094 162.258 338.859 163.874 339.823C165.489 340.788 168.327 342.42 170.18 343.451C172.033 344.482 175.398 346.488 177.656 347.909C179.915 349.331 183.084 351.325 184.7 352.341C192.348 357.154 206.25 367.327 210.888 371.503C211.635 372.176 213.315 373.628 214.622 374.728C218.953 378.378 222.561 381.686 227.181 386.239C232.601 391.576 233.422 392.078 236.765 392.081C238.206 392.081 239.711 391.864 241.394 391.416ZM256.028 338.687C255.345 337.661 254.787 336.755 254.787 336.674C254.787 336.593 254.565 336.201 254.294 335.803C254.022 335.405 253.544 334.659 253.23 334.145C252.399 332.784 245.148 321.918 244.225 320.652C239.275 313.86 228.162 301.974 220.981 295.79C216.642 292.054 213.034 289.075 211.533 287.989C206.713 284.503 195.14 276.992 191.241 274.821C190.58 274.452 188.898 273.499 187.503 272.7C185.319 271.451 175.114 266.327 174.809 266.327C174.637 266.327 169.614 263.961 168.012 263.125C166.223 262.192 166.155 261.898 166.94 258.504C168.921 249.947 171.725 242.352 176.027 233.887C180.194 225.69 183.958 220.351 189.975 214.105C196.588 207.239 202.452 202.875 212.067 197.664C216.855 195.07 216.178 195.381 223.41 192.45C226.49 191.202 229.446 189.958 229.976 189.688C232.98 188.155 234.204 184.102 232.812 180.298C231.998 178.076 231.329 177.087 228.066 173.278C222.88 167.224 220.376 162.575 218.07 154.721C216.599 149.713 216.079 146.736 215.898 142.306C215.58 134.506 216.596 128.334 219.396 121.074C222.846 112.127 230.385 103.905 238.635 100.094C241.532 98.7548 247.275 96.9051 249.848 96.4817C252.951 95.971 260.493 96.042 263.395 96.6092C272.182 98.3266 281.234 103.612 286.247 109.951C293.231 118.783 296.439 128.343 296.439 140.321C296.439 146.632 295.826 150.203 293.613 156.79C291.57 162.869 287.946 168.992 283.221 174.349C279.872 178.146 279.034 179.753 278.872 182.696C278.779 184.374 278.86 185.195 279.21 186.11C280.157 188.592 281.037 189.208 286.982 191.559C298.686 196.186 308.026 201.407 315.093 207.273C318.823 210.369 323.409 214.835 325.757 217.658C330.329 223.153 335.566 231.483 338.145 237.358C338.596 238.386 339.297 239.956 339.704 240.847C341.773 245.38 345.835 259.166 345.835 261.656C345.835 262.474 345.683 262.626 343.766 263.751C342.627 264.418 340.434 265.522 338.892 266.204C332.716 268.935 324.346 273.847 313.794 280.933C305.298 286.639 298.628 291.637 293.229 296.346C290.42 298.797 281.126 308.138 278.447 311.204C273.123 317.297 265.624 327.573 261.607 334.279C259.742 337.391 257.644 340.553 257.443 340.553C257.347 340.553 256.71 339.713 256.028 338.687ZM258.166 323.532C258.368 323.275 259.922 321.103 261.62 318.705C267.612 310.244 274.314 302.302 280.589 296.226C283.886 293.034 291.542 286.392 294.395 284.249C295.446 283.46 297.027 282.243 297.908 281.545C301.623 278.602 319.118 266.861 319.788 266.861C319.866 266.861 321.522 265.915 323.47 264.759C328.115 262 335.323 258.05 335.71 258.05C336.285 258.05 335.699 255.465 333.773 249.506C332.462 245.45 328.441 236.896 325.865 232.685C321.974 226.323 315.348 218.807 309.522 214.149C302.389 208.445 294.961 204.292 284.17 199.974C277.831 197.437 276.394 196.615 274.299 194.329C272.403 192.26 271.293 190.15 270.542 187.186C269.92 184.735 269.88 182.885 270.388 180.086C271.11 176.105 271.81 174.922 278.479 166.398C282.598 161.134 284.191 158.007 286.126 151.384C287.489 146.72 287.703 145.216 287.716 140.17C287.747 128.753 284.199 119.74 277.01 112.977C272.64 108.866 266.662 106.101 259.942 105.083C250.707 103.684 240.485 107.402 233.638 114.652C229.08 119.477 226.337 125.189 224.974 132.694C224.33 136.234 224.329 143.993 224.97 146.978C227.059 156.697 228.731 160.036 236.354 169.713C237.891 171.663 239.485 173.882 239.898 174.644C242.214 178.921 242.702 184.586 241.121 188.845C239.978 191.923 237.425 195.146 234.753 196.886C233.226 197.879 228.772 199.899 224.349 201.604C220.457 203.104 213.224 206.848 209.593 209.242C206.748 211.117 202.399 214.375 201.109 215.597C200.876 215.817 199.748 216.839 198.602 217.867C191.415 224.311 184.294 235.163 179.68 246.703C178.186 250.44 176.282 256.346 176.297 257.198C176.302 257.517 177.414 258.153 180.102 259.372C185.298 261.728 190.791 264.466 194.019 266.308C220.465 281.396 240.486 299.214 254.804 320.405C256.139 322.382 257.36 323.999 257.515 323.999C257.671 323.999 257.964 323.789 258.166 323.532L258.166 323.532Z" fill="#0D9488" fill-rule="nonzero" opacity="0.95"></path>
</svg>